# Blender 3.3.0
# www.blender.org
mtllib clipboard.mtl
o Cube
v -0.700000 0.049212 1.000000
v -0.700000 -0.049212 1.000000
v -0.700000 0.049212 -1.000000
v -0.700000 -0.049212 -1.000000
v 0.700000 0.049212 1.000000
v 0.700000 -0.049212 1.000000
v 0.700000 0.049212 -1.000000
v 0.700000 -0.049212 -1.000000
v -0.700000 0.049212 0.000000
v 0.000000 0.049212 -1.000000
v 0.700000 0.049212 0.000000
v 0.000000 0.049212 1.000000
v 0.000000 0.049212 0.000000
v -0.350000 0.049212 -1.000000
v 0.700000 0.049212 -0.500000
v -0.700000 0.049212 -0.500000
v 0.350000 0.049212 -1.000000
v 0.000000 0.049212 -0.500000
v -0.350000 0.049212 0.000000
v 0.350000 0.049212 0.000000
v 0.350000 0.049212 -0.500000
v -0.350000 0.049212 -0.500000
v 0.000000 0.102229 -0.500000
v 0.350000 0.102229 -0.500000
v -0.350000 0.102229 -0.500000
v 0.350000 0.049212 -0.919966
v 0.000000 0.049212 -0.919966
v -0.350000 0.049212 -0.919966
v 0.350000 0.102229 -0.919966
v 0.000000 0.102229 -0.919966
v -0.350000 0.102229 -0.919966
vn 1.0000 -0.0000 -0.0000
vn -0.0000 -0.0000 1.0000
vn -1.0000 -0.0000 -0.0000
vn -0.0000 -0.0000 -1.0000
vn -0.0000 -1.0000 -0.0000
vn -0.0000 1.0000 -0.0000
vt 0.375000 0.000000
vt 0.375000 1.000000
vt 0.125000 0.750000
vt 0.625000 0.000000
vt 0.625000 1.000000
vt 0.875000 0.750000
vt 0.375000 0.250000
vt 0.625000 0.250000
vt 0.875000 0.500000
vt 0.375000 0.750000
vt 0.625000 0.750000
vt 0.375000 0.500000
vt 0.625000 0.500000
vt 0.375000 0.125000
vt 0.125000 0.625000
vt 0.375000 0.375000
vt 0.375000 0.625000
vt 0.375000 0.875000
vt 0.250000 0.750000
vt 0.250000 0.625000
vt 0.375000 0.312500
vt 0.375000 0.562500
vt 0.125000 0.562500
vt 0.375000 0.187500
vt 0.312500 0.500000
vt 0.375000 0.437500
vt 0.250000 0.562500
vt 0.187500 0.625000
vt 0.312500 0.625000
vt 0.312500 0.562500
vt 0.000000 0.000000
vt 0.187500 0.562500
vt 0.000000 0.000000
vt 0.000000 0.000000
vt 0.000000 0.000000
vt 0.000000 0.000000
vt 0.375000 0.375000
vt 0.375000 0.312500
vt 0.000000 0.000000
vt 0.000000 0.000000
vt 0.000000 0.000000
s 0
f 1/1/1 2/4/1 4/8/1 3/7/1 16/24/1 9/14/1
f 3/7/2 4/8/2 8/13/2 7/12/2 17/26/2 10/16/2 14/21/2
f 7/12/3 8/13/3 6/11/3 5/10/3 11/17/3 15/22/3
f 5/10/4 6/11/4 2/5/4 1/2/4 12/18/4
f 13/20/5 20/29/5 11/17/5 5/10/5 12/19/5
f 8/13/6 4/9/6 2/6/6 6/11/6
f 9/15/5 19/28/5 13/20/5 12/19/5 1/3/5
f 22/32/5 18/27/5 13/20/5 19/28/5
f 21/30/5 15/22/5 11/17/5 20/29/5
f 18/27/5 21/30/5 20/29/5 13/20/5
f 17/25/5 7/12/5 15/22/5 21/30/5
f 16/23/5 22/32/5 19/28/5 9/15/5
f 14/21/5 10/16/5 27/37/5 28/38/5
f 25/35/5 31/41/5 30/40/5 29/39/5 24/34/5 23/33/5
f 27/37/2 26/36/2 29/39/2 30/40/2
f 27/37/2 30/40/2 31/41/2 28/38/2
f 31/41/1 25/35/1 22/31/1 28/38/1
f 24/34/4 21/30/4 18/27/4 23/33/4
f 23/33/4 18/27/4 22/31/4 25/35/4
f 24/34/3 29/39/3 26/36/3 21/30/3
f 3/7/5 14/21/5 22/32/5 16/24/5
f 10/16/5 17/26/5 26/36/5 27/37/5
